<svg width="385" height="49" viewBox="0 0 385 49" fill="none" xmlns="http://www.w3.org/2000/svg">
<path d="M7.8125 20.5625H10.6562C14.1979 20.5625 16.6979 20.0833 18.1562 19.125C19.6354 18.1458 20.375 16.5104 20.375 14.2188C20.375 11.7188 19.6979 9.96875 18.3438 8.96875C16.9896 7.94792 14.4271 7.4375 10.6562 7.4375H7.8125V20.5625ZM7.8125 40.7812H10.375C12.9792 40.7812 14.9271 40.6771 16.2188 40.4688C17.5104 40.2604 18.5312 39.8958 19.2812 39.375C20.1979 38.7708 20.9062 37.9583 21.4062 36.9375C21.9062 35.9167 22.1562 34.7917 22.1562 33.5625C22.1562 32.1042 21.8542 30.8333 21.25 29.75C20.6458 28.6667 19.7812 27.8229 18.6562 27.2188C17.9479 26.8646 17.1354 26.6042 16.2188 26.4375C15.3229 26.2708 14.125 26.1875 12.625 26.1875H10.375H7.8125V40.7812ZM0.53125 47V1.25H12.0625C15.3542 1.25 17.7812 1.42708 19.3438 1.78125C20.9271 2.13542 22.2708 2.71875 23.375 3.53125C24.7917 4.57292 25.8854 5.9375 26.6562 7.625C27.4479 9.3125 27.8438 11.1771 27.8438 13.2188C27.8438 15.6562 27.2812 17.6979 26.1562 19.3438C25.0312 20.9688 23.3958 22.1042 21.25 22.75C23.9167 23.1667 26.0104 24.3854 27.5312 26.4062C29.0729 28.4062 29.8438 30.9375 29.8438 34C29.8438 35.8542 29.5208 37.6146 28.875 39.2812C28.2292 40.9479 27.3125 42.3646 26.125 43.5312C24.875 44.8021 23.3229 45.6979 21.4688 46.2188C19.6146 46.7396 16.5 47 12.125 47H0.53125ZM37.4062 47V1.25H62.9375V7.5625H44.8438V19.0312H62.9375V25.5625H44.8438V40.3438H62.9375V47H37.4062ZM68.8438 37.8438L74.7812 35.0938C75.3438 37.1354 76.375 38.6979 77.875 39.7812C79.375 40.8438 81.2917 41.375 83.625 41.375C85.8333 41.375 87.5833 40.7604 88.875 39.5312C90.1875 38.3021 90.8438 36.6562 90.8438 34.5938C90.8438 31.9062 88.6146 29.5104 84.1562 27.4062C83.5312 27.0938 83.0521 26.8646 82.7188 26.7188C77.6771 24.2604 74.3125 22.0417 72.625 20.0625C70.9583 18.0625 70.125 15.625 70.125 12.75C70.125 9.02083 71.3854 6 73.9062 3.6875C76.4479 1.375 79.7708 0.21875 83.875 0.21875C87.25 0.21875 90.0729 0.875 92.3438 2.1875C94.6146 3.47917 96.1875 5.34375 97.0625 7.78125L91.25 10.7812C90.3333 9.34375 89.3229 8.29167 88.2188 7.625C87.1354 6.95833 85.8854 6.625 84.4688 6.625C82.4688 6.625 80.875 7.14583 79.6875 8.1875C78.5208 9.22917 77.9375 10.625 77.9375 12.375C77.9375 15.125 80.5208 17.6875 85.6875 20.0625C86.0833 20.25 86.3958 20.3958 86.625 20.5C91.1458 22.5833 94.25 24.625 95.9375 26.625C97.625 28.6042 98.4688 31.0833 98.4688 34.0625C98.4688 38.3958 97.1042 41.8438 94.375 44.4062C91.6458 46.9479 87.9583 48.2188 83.3125 48.2188C79.4167 48.2188 76.2188 47.3229 73.7188 45.5312C71.2396 43.7396 69.6146 41.1771 68.8438 37.8438ZM121.375 7.5625V47H113.938V7.5625H101.781V1.25H133.469V7.5625H121.375ZM155.844 37.8438L161.781 35.0938C162.344 37.1354 163.375 38.6979 164.875 39.7812C166.375 40.8438 168.292 41.375 170.625 41.375C172.833 41.375 174.583 40.7604 175.875 39.5312C177.188 38.3021 177.844 36.6562 177.844 34.5938C177.844 31.9062 175.615 29.5104 171.156 27.4062C170.531 27.0938 170.052 26.8646 169.719 26.7188C164.677 24.2604 161.312 22.0417 159.625 20.0625C157.958 18.0625 157.125 15.625 157.125 12.75C157.125 9.02083 158.385 6 160.906 3.6875C163.448 1.375 166.771 0.21875 170.875 0.21875C174.25 0.21875 177.073 0.875 179.344 2.1875C181.615 3.47917 183.188 5.34375 184.062 7.78125L178.25 10.7812C177.333 9.34375 176.323 8.29167 175.219 7.625C174.135 6.95833 172.885 6.625 171.469 6.625C169.469 6.625 167.875 7.14583 166.688 8.1875C165.521 9.22917 164.938 10.625 164.938 12.375C164.938 15.125 167.521 17.6875 172.688 20.0625C173.083 20.25 173.396 20.3958 173.625 20.5C178.146 22.5833 181.25 24.625 182.938 26.625C184.625 28.6042 185.469 31.0833 185.469 34.0625C185.469 38.3958 184.104 41.8438 181.375 44.4062C178.646 46.9479 174.958 48.2188 170.312 48.2188C166.417 48.2188 163.219 47.3229 160.719 45.5312C158.24 43.7396 156.615 41.1771 155.844 37.8438ZM193.594 47V1.25H219.125V7.5625H201.031V19.0312H219.125V25.5625H201.031V40.3438H219.125V47H193.594ZM227.656 47V1.25H235.094V40.3438H251.719V47H227.656ZM257.781 47V1.25H265.219V40.3438H281.844V47H257.781ZM287.906 47V1.25H313.438V7.5625H295.344V19.0312H313.438V25.5625H295.344V40.3438H313.438V47H287.906ZM329.406 20.75H330.75C334.688 20.75 337.302 20.2917 338.594 19.375C339.885 18.4583 340.531 16.8333 340.531 14.5C340.531 11.9792 339.833 10.2083 338.438 9.1875C337.062 8.14583 334.5 7.625 330.75 7.625H329.406V20.75ZM328.938 26.5312V47H321.969V1.25H332.344C335.385 1.25 337.74 1.44792 339.406 1.84375C341.094 2.23958 342.531 2.89583 343.719 3.8125C345.135 4.91667 346.229 6.34375 347 8.09375C347.771 9.84375 348.156 11.7604 348.156 13.8438C348.156 17.5104 347.271 20.3854 345.5 22.4688C343.729 24.5312 341.115 25.7708 337.656 26.1875L353.406 47H345L329.781 26.5312H328.938ZM355.219 37.8438L361.156 35.0938C361.719 37.1354 362.75 38.6979 364.25 39.7812C365.75 40.8438 367.667 41.375 370 41.375C372.208 41.375 373.958 40.7604 375.25 39.5312C376.562 38.3021 377.219 36.6562 377.219 34.5938C377.219 31.9062 374.99 29.5104 370.531 27.4062C369.906 27.0938 369.427 26.8646 369.094 26.7188C364.052 24.2604 360.688 22.0417 359 20.0625C357.333 18.0625 356.5 15.625 356.5 12.75C356.5 9.02083 357.76 6 360.281 3.6875C362.823 1.375 366.146 0.21875 370.25 0.21875C373.625 0.21875 376.448 0.875 378.719 2.1875C380.99 3.47917 382.562 5.34375 383.438 7.78125L377.625 10.7812C376.708 9.34375 375.698 8.29167 374.594 7.625C373.51 6.95833 372.26 6.625 370.844 6.625C368.844 6.625 367.25 7.14583 366.062 8.1875C364.896 9.22917 364.312 10.625 364.312 12.375C364.312 15.125 366.896 17.6875 372.062 20.0625C372.458 20.25 372.771 20.3958 373 20.5C377.521 22.5833 380.625 24.625 382.312 26.625C384 28.6042 384.844 31.0833 384.844 34.0625C384.844 38.3958 383.479 41.8438 380.75 44.4062C378.021 46.9479 374.333 48.2188 369.688 48.2188C365.792 48.2188 362.594 47.3229 360.094 45.5312C357.615 43.7396 355.99 41.1771 355.219 37.8438Z" fill="white"/>
</svg>
