<svg width="1440" height="157" viewBox="0 0 1440 157" fill="none" xmlns="http://www.w3.org/2000/svg">
<rect x="-33.9957" y="63.4299" width="1506" height="80" transform="rotate(-1.90719 -33.9957 63.4299)" fill="#BA0000"/>
<path d="M27.5831 117.424L30.3744 94.4941L41.6638 94.0824L40.9909 99.6419L36.0411 99.8224L35.646 103.136L39.9244 102.98L39.2927 108.381L34.983 108.539L33.9227 117.192L27.5831 117.424ZM72.522 115.785L75.3133 92.8554L81.6997 92.6226L79.6079 109.866L84.2767 109.696L83.5928 115.381L72.522 115.785ZM116.477 114.182L124.218 91.0722L131.729 90.7983L134.169 113.537L127.735 113.772L127.644 110.413L123.881 110.551L123.004 113.944L116.477 114.182ZM125.056 105.895L127.601 105.802L127.371 97.3521L125.056 105.895ZM167.656 105.296C168.386 105.863 169.147 106.294 169.939 106.588C170.732 106.883 171.487 107.017 172.205 106.99C172.84 106.967 173.339 106.777 173.701 106.42C174.063 106.052 174.233 105.567 174.211 104.963C174.192 104.442 174.017 103.933 173.686 103.434C173.355 102.925 172.726 102.26 171.8 101.439C170.679 100.427 169.901 99.5277 169.465 98.741C169.03 97.9542 168.795 97.0768 168.76 96.1087C168.68 93.9331 169.304 92.18 170.632 90.8495C171.969 89.5186 173.82 88.8101 176.183 88.7239C177.141 88.689 178.055 88.7651 178.927 88.9522C179.799 89.1289 180.691 89.4247 181.602 89.8397L180.899 95.4315C180.195 94.9777 179.51 94.6379 178.845 94.4119C178.191 94.1856 177.567 94.0833 176.973 94.1049C176.442 94.1243 176.026 94.2802 175.724 94.5726C175.432 94.8543 175.295 95.2346 175.312 95.7134C175.336 96.3588 175.957 97.243 177.176 98.366C177.327 98.5064 177.445 98.6168 177.532 98.697C178.761 99.8196 179.578 100.791 179.983 101.61C180.388 102.429 180.611 103.385 180.651 104.478C180.739 106.914 180.055 108.862 178.597 110.322C177.149 111.782 175.118 112.56 172.506 112.655C171.392 112.696 170.33 112.599 169.321 112.365C168.323 112.14 167.477 111.806 166.783 111.363L167.656 105.296ZM213.397 110.648L216.188 87.7186L222.544 87.4868L221.533 95.7792L224.156 95.6835L225.136 87.3923L231.506 87.16L228.715 110.089L222.36 110.321L223.44 101.354L220.848 101.449L219.768 110.416L213.397 110.648ZM780.926 89.9537L783.718 67.0242L795.007 66.6126L794.334 72.172L789.384 72.3525L788.989 75.666L793.267 75.51L792.636 80.9116L788.326 81.0687L787.266 89.7225L780.926 89.9537ZM825.865 88.315L828.656 65.3856L835.043 65.1527L832.951 82.3966L837.62 82.2264L836.936 87.9113L825.865 88.315ZM869.82 86.7122L877.561 63.6023L885.072 63.3284L887.512 86.0671L881.078 86.3017L880.987 82.9434L877.224 83.0807L876.347 86.4742L869.82 86.7122ZM878.399 78.4254L880.944 78.3326L880.714 69.8822L878.399 78.4254ZM920.999 77.8258C921.729 78.3933 922.49 78.8242 923.282 79.1184C924.075 79.4127 924.83 79.5467 925.548 79.5205C926.183 79.4973 926.682 79.3072 927.044 78.95C927.406 78.5824 927.576 78.0967 927.554 77.4929C927.535 76.9725 927.36 76.4629 927.029 75.9642C926.698 75.4551 926.069 74.79 925.143 73.9691C924.022 72.9572 923.244 72.0579 922.808 71.2711C922.373 70.4844 922.138 69.6069 922.103 68.6388C922.023 66.4632 922.647 64.7101 923.975 63.3796C925.313 62.0487 927.163 61.3402 929.526 61.254C930.484 61.2191 931.399 61.2952 932.271 61.4823C933.142 61.659 934.034 61.9548 934.945 62.3698L934.242 67.9616C933.538 67.5078 932.853 67.168 932.188 66.9421C931.534 66.7158 930.91 66.6134 930.316 66.6351C929.785 66.6544 929.369 66.8103 929.067 67.1028C928.775 67.3844 928.638 67.7647 928.655 68.2435C928.679 68.8889 929.3 69.7732 930.519 70.8961C930.67 71.0366 930.788 71.1469 930.875 71.2271C932.104 72.3498 932.921 73.3206 933.326 74.1397C933.731 74.9589 933.954 75.9149 933.994 77.008C934.082 79.4438 933.398 81.392 931.94 82.8523C930.492 84.3123 928.462 85.0899 925.849 85.1852C924.735 85.2258 923.673 85.129 922.664 84.8948C921.666 84.6706 920.82 84.3366 920.126 83.8929L920.999 77.8258ZM966.74 83.1782L969.532 60.2487L975.887 60.017L974.876 68.3093L977.499 68.2137L978.479 59.9225L984.85 59.6902L982.058 82.6196L975.703 82.8513L976.783 73.8841L974.191 73.9787L973.111 82.9458L966.74 83.1782ZM1215.73 74.099L1218.52 51.1695L1229.81 50.7579L1229.14 56.3173L1224.19 56.4978L1223.79 59.8113L1228.07 59.6553L1227.44 65.0569L1223.13 65.214L1222.07 73.8678L1215.73 74.099ZM1260.67 72.4603L1263.46 49.5309L1269.85 49.298L1267.76 66.5419L1272.42 66.3717L1271.74 72.0566L1260.67 72.4603ZM1304.63 70.8575L1312.37 47.7476L1319.88 47.4737L1322.32 70.2124L1315.88 70.447L1315.79 67.0887L1312.03 67.226L1311.15 70.6195L1304.63 70.8575ZM1313.2 62.5707L1315.75 62.4779L1315.52 54.0275L1313.2 62.5707ZM1355.8 61.9711C1356.53 62.5386 1357.29 62.9695 1358.09 63.2637C1358.88 63.558 1359.63 63.692 1360.35 63.6658C1360.99 63.6426 1361.49 63.4525 1361.85 63.0953C1362.21 62.7277 1362.38 62.242 1362.36 61.6382C1362.34 61.1177 1362.16 60.6082 1361.83 60.1095C1361.5 59.6004 1360.87 58.9353 1359.95 58.1144C1358.83 57.1025 1358.05 56.2032 1357.61 55.4164C1357.18 54.6297 1356.94 53.7522 1356.91 52.7841C1356.83 50.6085 1357.45 48.8554 1358.78 47.5249C1360.12 46.194 1361.97 45.4855 1364.33 45.3993C1365.29 45.3644 1366.2 45.4405 1367.08 45.6276C1367.95 45.8043 1368.84 46.1001 1369.75 46.5151L1369.05 52.1069C1368.34 51.6531 1367.66 51.3133 1366.99 51.0874C1366.34 50.8611 1365.71 50.7587 1365.12 50.7804C1364.59 50.7997 1364.17 50.9556 1363.87 51.2481C1363.58 51.5297 1363.44 51.91 1363.46 52.3888C1363.48 53.0342 1364.1 53.9184 1365.32 55.0414C1365.47 55.1819 1365.59 55.2922 1365.68 55.3724C1366.91 56.4951 1367.73 57.4659 1368.13 58.285C1368.54 59.1042 1368.76 60.0602 1368.8 61.1533C1368.89 63.5891 1368.2 65.5373 1366.74 66.9976C1365.3 68.4576 1363.27 69.2352 1360.65 69.3305C1359.54 69.3711 1358.48 69.2743 1357.47 69.0401C1356.47 68.8159 1355.62 68.4819 1354.93 68.0382L1355.8 61.9711ZM1401.55 67.3234L1404.34 44.394L1410.69 44.1623L1409.68 52.4546L1412.3 52.359L1413.28 44.0678L1419.65 43.8355L1416.86 66.7649L1410.51 66.9966L1411.59 58.0294L1409 58.124L1407.92 67.0911L1401.55 67.3234Z" fill="white"/>
<rect x="-30.7368" width="1506" height="80" transform="rotate(2.92263 -30.7368 0)" fill="black"/>
<path d="M-69.8255 49.5041L-64.9912 26.9169L-53.7104 27.5183L-54.8786 32.9951L-59.8247 32.7315L-60.5151 35.9962L-56.2399 36.2241L-57.353 41.5474L-61.6594 41.3178L-63.4908 49.8418L-69.8255 49.5041ZM-24.9205 51.898L-20.0863 29.3108L-13.7047 29.651L-17.3329 46.6382L-12.6676 46.8869L-13.8581 52.4877L-24.9205 51.898ZM19.0015 54.2395L28.7819 31.916L36.2868 32.3161L36.6795 55.1819L30.2511 54.8392L30.4612 51.4862L26.7009 51.2858L25.5235 54.5872L19.0015 54.2395ZM28.2881 46.7545L30.8314 46.8901L31.3594 38.4531L28.2881 46.7545ZM70.7707 49.9737C71.4464 50.6043 72.1658 51.1017 72.9287 51.4657C73.6917 51.8298 74.432 52.0309 75.1498 52.0692C75.7843 52.103 76.2979 51.9583 76.6907 51.635C77.084 51.3013 77.2967 50.8328 77.3289 50.2294C77.3566 49.7093 77.2281 49.1861 76.9432 48.6598C76.6588 48.1231 76.0921 47.4044 75.243 46.5037C74.2172 45.3955 73.5229 44.4301 73.1599 43.6075C72.7969 42.7849 72.6412 41.8899 72.6928 40.9226C72.8087 38.7486 73.5873 37.0585 75.0285 35.8522C76.4802 34.6465 78.3866 34.1066 80.7478 34.2325C81.7048 34.2835 82.6092 34.4413 83.4609 34.7057C84.3131 34.9598 85.1746 35.3343 86.0454 35.8293L84.8443 41.3357C84.1833 40.8206 83.5317 40.4207 82.8897 40.1362C82.2581 39.8521 81.6459 39.6943 81.053 39.6627C80.5225 39.6344 80.0937 39.7524 79.7667 40.0166C79.4506 40.271 79.2798 40.6374 79.2543 41.1159C79.2199 41.7608 79.7594 42.6971 80.8727 43.9248C81.0105 44.0782 81.1189 44.1987 81.1976 44.2863C82.3214 45.5146 83.0483 46.5547 83.3784 47.4069C83.7085 48.259 83.8444 49.2311 83.7862 50.3233C83.6564 52.7574 82.8 54.6363 81.2168 55.9602C79.6441 57.2846 77.5523 57.8772 74.9414 57.738C73.8284 57.6787 72.7798 57.4872 71.7957 57.1635C70.8214 56.8507 70.0086 56.4423 69.3575 55.9382L70.7707 49.9737ZM115.848 59.4024L120.683 36.8152L127.033 37.1537L125.283 45.3222L127.904 45.4619L129.623 37.2918L135.989 37.6312L131.155 60.2184L124.804 59.8798L126.684 51.0455L124.094 50.9074L122.214 59.7418L115.848 59.4024ZM404.439 74.7871L409.273 52.2L420.554 52.8013L419.385 58.2782L414.439 58.0145L413.749 61.2792L418.024 61.5071L416.911 66.8304L412.605 66.6009L410.773 75.1248L404.439 74.7871ZM449.344 77.181L454.178 54.5938L460.559 54.934L456.931 71.9212L461.596 72.1699L460.406 77.7708L449.344 77.181ZM493.266 79.5225L503.046 57.199L510.551 57.5991L510.944 80.4649L504.515 80.1222L504.725 76.7693L500.965 76.5688L499.788 79.8702L493.266 79.5225ZM502.552 72.0375L505.095 72.1731L505.623 63.7361L502.552 72.0375ZM545.035 75.2567C545.711 75.8873 546.43 76.3847 547.193 76.7487C547.956 77.1128 548.696 77.3139 549.414 77.3522C550.048 77.386 550.562 77.2413 550.955 76.918C551.348 76.5843 551.561 76.1158 551.593 75.5125C551.621 74.9924 551.492 74.4692 551.207 73.9428C550.923 73.4061 550.356 72.6874 549.507 71.7868C548.481 70.6785 547.787 69.7131 547.424 68.8905C547.061 68.0679 546.905 67.173 546.957 66.2056C547.073 64.0316 547.851 62.3415 549.293 61.1352C550.744 59.9296 552.651 59.3897 555.012 59.5155C555.969 59.5666 556.873 59.7243 557.725 59.9888C558.577 60.2428 559.439 60.6173 560.309 61.1123L559.108 66.6187C558.447 66.1036 557.796 65.7038 557.154 65.4192C556.522 65.1352 555.91 64.9773 555.317 64.9457C554.787 64.9174 554.358 65.0354 554.031 65.2996C553.715 65.554 553.544 65.9204 553.518 66.3989C553.484 67.0438 554.023 67.9801 555.137 69.2078C555.275 69.3612 555.383 69.4817 555.462 69.5694C556.585 70.7976 557.312 71.8378 557.642 72.6899C557.973 73.542 558.108 74.5141 558.05 75.6063C557.921 78.0404 557.064 79.9193 555.481 81.2432C553.908 82.5676 551.816 83.1602 549.206 83.021C548.093 82.9617 547.044 82.7702 546.06 82.4465C545.085 82.1338 544.273 81.7253 543.622 81.2212L545.035 75.2567ZM590.112 84.6854L594.947 62.0982L601.297 62.4368L599.547 70.6052L602.168 70.7449L603.887 62.5748L610.253 62.9142L605.419 85.5014L599.068 85.1629L600.948 76.3285L598.358 76.1904L596.478 85.0248L590.112 84.6854ZM878.703 100.07L883.537 77.483L894.818 78.0844L893.65 83.5612L888.703 83.2975L888.013 86.5623L892.288 86.7902L891.175 92.1135L886.869 91.8839L885.037 100.408L878.703 100.07ZM923.608 102.464L928.442 79.8769L934.823 80.2171L931.195 97.2043L935.86 97.453L934.67 103.054L923.608 102.464ZM967.53 104.806L977.31 82.482L984.815 82.8821L985.208 105.748L978.779 105.405L978.989 102.052L975.229 101.852L974.052 105.153L967.53 104.806ZM976.816 97.3205L979.36 97.4561L979.888 89.0191L976.816 97.3205ZM1019.3 100.54C1019.97 101.17 1020.69 101.668 1021.46 102.032C1022.22 102.396 1022.96 102.597 1023.68 102.635C1024.31 102.669 1024.83 102.524 1025.22 102.201C1025.61 101.867 1025.82 101.399 1025.86 100.795C1025.88 100.275 1025.76 99.7522 1025.47 99.2259C1025.19 98.6891 1024.62 97.9704 1023.77 97.0698C1022.75 95.9615 1022.05 94.9961 1021.69 94.1735C1021.33 93.351 1021.17 92.456 1021.22 91.4886C1021.34 89.3146 1022.12 87.6245 1023.56 86.4183C1025.01 85.2126 1026.91 84.6727 1029.28 84.7986C1030.23 84.8496 1031.14 85.0073 1031.99 85.2718C1032.84 85.5258 1033.7 85.9004 1034.57 86.3953L1033.37 91.9017C1032.71 91.3866 1032.06 90.9868 1031.42 90.7022C1030.79 90.4182 1030.17 90.2604 1029.58 90.2287C1029.05 90.2005 1028.62 90.3184 1028.29 90.5827C1027.98 90.837 1027.81 91.2034 1027.78 91.6819C1027.75 92.3269 1028.29 93.2631 1029.4 94.4908C1029.54 94.6442 1029.65 94.7647 1029.73 94.8524C1030.85 96.0806 1031.58 97.1208 1031.91 97.9729C1032.24 98.825 1032.37 99.7972 1032.31 100.889C1032.18 103.323 1031.33 105.202 1029.74 106.526C1028.17 107.851 1026.08 108.443 1023.47 108.304C1022.36 108.245 1021.31 108.053 1020.32 107.73C1019.35 107.417 1018.54 107.008 1017.89 106.504L1019.3 100.54ZM1064.38 109.968L1069.21 87.3812L1075.56 87.7198L1073.81 95.8882L1076.43 96.028L1078.15 87.8579L1084.52 88.1972L1079.68 110.784L1073.33 110.446L1075.21 101.612L1072.62 101.473L1070.74 110.308L1064.38 109.968ZM1313.18 123.232L1318.01 100.645L1329.29 101.246L1328.13 106.723L1323.18 106.459L1322.49 109.724L1326.77 109.952L1325.65 115.275L1321.35 115.046L1319.51 123.57L1313.18 123.232ZM1358.08 125.626L1362.92 103.039L1369.3 103.379L1365.67 120.366L1370.34 120.615L1369.15 126.216L1358.08 125.626ZM1402.01 127.967L1411.79 105.644L1419.29 106.044L1419.68 128.91L1413.26 128.567L1413.47 125.214L1409.71 125.014L1408.53 128.315L1402.01 127.967ZM1411.29 120.482L1413.84 120.618L1414.36 112.181L1411.29 120.482ZM1453.78 123.702C1454.45 124.332 1455.17 124.83 1455.93 125.194C1456.7 125.558 1457.44 125.759 1458.15 125.797C1458.79 125.831 1459.3 125.686 1459.7 125.363C1460.09 125.029 1460.3 124.561 1460.33 123.957C1460.36 123.437 1460.23 122.914 1459.95 122.388C1459.66 121.851 1459.1 121.132 1458.25 120.232C1457.22 119.123 1456.53 118.158 1456.16 117.335C1455.8 116.513 1455.65 115.618 1455.7 114.651C1455.81 112.477 1456.59 110.786 1458.03 109.58C1459.49 108.375 1461.39 107.835 1463.75 107.961C1464.71 108.012 1465.61 108.169 1466.47 108.434C1467.32 108.688 1468.18 109.062 1469.05 109.557L1467.85 115.064C1467.19 114.549 1466.54 114.149 1465.89 113.864C1465.26 113.58 1464.65 113.422 1464.06 113.391C1463.53 113.362 1463.1 113.48 1462.77 113.745C1462.46 113.999 1462.28 114.365 1462.26 114.844C1462.22 115.489 1462.76 116.425 1463.88 117.653C1464.02 117.806 1464.12 117.927 1464.2 118.014C1465.33 119.243 1466.05 120.283 1466.38 121.135C1466.71 121.987 1466.85 122.959 1466.79 124.051C1466.66 126.485 1465.8 128.364 1464.22 129.688C1462.65 131.013 1460.56 131.605 1457.95 131.466C1456.83 131.407 1455.78 131.215 1454.8 130.891C1453.83 130.579 1453.01 130.17 1452.36 129.666L1453.78 123.702ZM1498.85 133.13L1503.69 110.543L1510.04 110.882L1508.29 119.05L1510.91 119.19L1512.63 111.02L1518.99 111.359L1514.16 133.946L1507.81 133.608L1509.69 124.773L1507.1 124.635L1505.22 133.47L1498.85 133.13Z" fill="white"/>
</svg>
